<svg xmlns="http://www.w3.org/2000/svg" xmlns:xlink="http://www.w3.org/1999/xlink" width="500" zoomAndPan="magnify" viewBox="0 0 375 374.999991" height="500" preserveAspectRatio="xMidYMid meet" version="1.0"><defs><g/><clipPath id="9acd2e00f8"><path d="M 85.265625 116 L 150 116 L 150 192 L 85.265625 192 Z M 85.265625 116 " clip-rule="nonzero"/></clipPath><clipPath id="d40b6aaf73"><path d="M 152.574219 112.703125 L 222.421875 112.703125 L 222.421875 207.136719 L 152.574219 207.136719 Z M 152.574219 112.703125 " clip-rule="nonzero"/></clipPath></defs><rect x="-37.5" width="450" fill="#ffffff" y="-37.499999" height="449.999989" fill-opacity="1"/><rect x="-37.5" width="450" fill="#ffffff" y="-37.499999" height="449.999989" fill-opacity="1"/><g clip-path="url(#9acd2e00f8)"><path fill="#211d1d" d="M 88.222656 148.988281 L 141.761719 116.835938 C 142.570312 116.390625 143.464844 116.164062 144.453125 116.164062 C 145.933594 116.164062 147.199219 116.691406 148.253906 117.746094 C 149.304688 118.796875 149.832031 120.066406 149.832031 121.546875 C 149.832031 123.472656 148.914062 125.042969 147.074219 126.253906 L 101.070312 153.828125 L 147.074219 181.40625 C 148.914062 182.617188 149.832031 184.183594 149.832031 186.113281 C 149.832031 187.59375 149.304688 188.859375 148.253906 189.914062 C 147.199219 190.96875 145.933594 191.492188 144.453125 191.492188 C 143.464844 191.492188 142.570312 191.269531 141.761719 190.824219 L 88.222656 158.671875 C 86.25 157.414062 85.265625 155.800781 85.265625 153.828125 C 85.265625 151.855469 86.25 150.242188 88.222656 148.988281 " fill-opacity="1" fill-rule="nonzero"/></g><path fill="#211d1d" d="M 289.734375 153.828125 C 289.734375 155.800781 288.746094 157.414062 286.773438 158.671875 L 233.234375 190.824219 C 232.425781 191.269531 231.53125 191.492188 230.542969 191.492188 C 229.0625 191.492188 227.796875 190.96875 226.742188 189.914062 C 225.691406 188.859375 225.164062 187.59375 225.164062 186.113281 C 225.164062 184.183594 226.082031 182.617188 227.921875 181.40625 L 273.925781 153.828125 L 227.921875 126.253906 C 226.082031 125.042969 225.164062 123.472656 225.164062 121.546875 C 225.164062 120.066406 225.691406 118.796875 226.742188 117.746094 C 227.796875 116.691406 229.0625 116.164062 230.542969 116.164062 C 231.53125 116.164062 232.425781 116.390625 233.234375 116.835938 L 286.773438 148.988281 C 288.746094 150.242188 289.734375 151.855469 289.734375 153.828125 " fill-opacity="1" fill-rule="nonzero"/><g clip-path="url(#d40b6aaf73)"><path fill="#67c656" d="M 213.828125 151.488281 C 207.714844 162.089844 194.164062 165.71875 183.5625 159.597656 C 172.960938 153.476562 169.328125 139.925781 175.449219 129.324219 C 181.574219 118.730469 195.125 115.097656 205.71875 121.214844 C 216.320312 127.335938 219.949219 140.886719 213.828125 151.488281 Z M 208.488281 116.414062 C 208.476562 116.410156 208.472656 116.414062 208.460938 116.402344 C 195.21875 108.773438 178.296875 113.320312 170.652344 126.554688 C 163.492188 138.960938 167.019531 154.589844 178.355469 162.8125 L 173.238281 171.675781 L 171.296875 170.554688 C 170.90625 170.324219 170.398438 170.460938 170.175781 170.855469 L 152.765625 201.019531 C 152.535156 201.410156 152.671875 201.917969 153.058594 202.140625 L 161.96875 207.285156 C 162.355469 207.507812 162.863281 207.371094 163.09375 206.984375 L 180.503906 176.820312 C 180.726562 176.425781 180.59375 175.925781 180.203125 175.691406 L 178.261719 174.574219 L 182.132812 167.867188 L 183.371094 165.710938 C 196.167969 171.421875 211.472656 166.65625 218.625 154.257812 C 226.273438 141.011719 221.738281 124.070312 208.488281 116.414062 " fill-opacity="1" fill-rule="nonzero"/></g><path fill="#67c656" d="M 199.257812 121.4375 C 189.007812 123.363281 180.511719 129.820312 175.738281 138.535156 C 176.757812 129.28125 184.253906 121.785156 193.867188 121.085938 C 195.71875 120.949219 197.527344 121.082031 199.257812 121.4375 " fill-opacity="1" fill-rule="nonzero"/><g fill="#211d1d" fill-opacity="1"><g transform="translate(96.727474, 236.911143)"><g><path d="M 8.046875 -18.5625 C 9.023438 -18.5625 9.984375 -18.414062 10.921875 -18.125 C 11.867188 -17.84375 12.570312 -17.5625 13.03125 -17.28125 L 13.703125 -16.828125 L 12.015625 -13.515625 C 11.878906 -13.609375 11.691406 -13.722656 11.453125 -13.859375 C 11.222656 -14.003906 10.785156 -14.191406 10.140625 -14.421875 C 9.492188 -14.660156 8.890625 -14.78125 8.328125 -14.78125 C 7.640625 -14.78125 7.109375 -14.628906 6.734375 -14.328125 C 6.359375 -14.035156 6.171875 -13.640625 6.171875 -13.140625 C 6.171875 -12.890625 6.253906 -12.65625 6.421875 -12.4375 C 6.597656 -12.226562 6.898438 -12.003906 7.328125 -11.765625 C 7.753906 -11.523438 8.128906 -11.328125 8.453125 -11.171875 C 8.785156 -11.023438 9.289062 -10.804688 9.96875 -10.515625 C 11.144531 -10.015625 12.148438 -9.332031 12.984375 -8.46875 C 13.816406 -7.613281 14.234375 -6.640625 14.234375 -5.546875 C 14.234375 -4.503906 14.046875 -3.59375 13.671875 -2.8125 C 13.296875 -2.03125 12.78125 -1.414062 12.125 -0.96875 C 11.46875 -0.53125 10.738281 -0.207031 9.9375 0 C 9.144531 0.21875 8.285156 0.328125 7.359375 0.328125 C 6.566406 0.328125 5.785156 0.242188 5.015625 0.078125 C 4.242188 -0.078125 3.597656 -0.273438 3.078125 -0.515625 C 2.566406 -0.765625 2.101562 -1.003906 1.6875 -1.234375 C 1.28125 -1.472656 0.984375 -1.671875 0.796875 -1.828125 L 0.515625 -2.078125 L 2.578125 -5.5625 C 2.753906 -5.414062 3 -5.226562 3.3125 -5 C 3.625 -4.769531 4.171875 -4.460938 4.953125 -4.078125 C 5.742188 -3.703125 6.441406 -3.515625 7.046875 -3.515625 C 8.796875 -3.515625 9.671875 -4.109375 9.671875 -5.296875 C 9.671875 -5.546875 9.609375 -5.773438 9.484375 -5.984375 C 9.359375 -6.203125 9.132812 -6.414062 8.8125 -6.625 C 8.5 -6.84375 8.222656 -7.015625 7.984375 -7.140625 C 7.742188 -7.265625 7.347656 -7.457031 6.796875 -7.71875 C 6.242188 -7.976562 5.832031 -8.175781 5.5625 -8.3125 C 4.457031 -8.851562 3.601562 -9.53125 3 -10.34375 C 2.394531 -11.164062 2.09375 -12.046875 2.09375 -12.984375 C 2.09375 -14.617188 2.695312 -15.957031 3.90625 -17 C 5.113281 -18.039062 6.492188 -18.5625 8.046875 -18.5625 Z M 8.046875 -18.5625 "/></g></g></g><g fill="#211d1d" fill-opacity="1"><g transform="translate(114.438952, 236.911143)"><g><path d="M 11.03125 -3.75 C 11.65625 -3.75 12.265625 -3.84375 12.859375 -4.03125 C 13.460938 -4.226562 13.90625 -4.414062 14.1875 -4.59375 L 14.609375 -4.875 L 16.375 -1.34375 C 16.3125 -1.300781 16.226562 -1.242188 16.125 -1.171875 C 16.019531 -1.097656 15.78125 -0.960938 15.40625 -0.765625 C 15.03125 -0.566406 14.628906 -0.390625 14.203125 -0.234375 C 13.773438 -0.0859375 13.210938 0.0390625 12.515625 0.15625 C 11.828125 0.269531 11.117188 0.328125 10.390625 0.328125 C 8.691406 0.328125 7.082031 -0.0859375 5.5625 -0.921875 C 4.050781 -1.753906 2.832031 -2.898438 1.90625 -4.359375 C 0.976562 -5.816406 0.515625 -7.390625 0.515625 -9.078125 C 0.515625 -10.359375 0.785156 -11.585938 1.328125 -12.765625 C 1.867188 -13.941406 2.59375 -14.953125 3.5 -15.796875 C 4.40625 -16.640625 5.460938 -17.3125 6.671875 -17.8125 C 7.878906 -18.3125 9.117188 -18.5625 10.390625 -18.5625 C 11.566406 -18.5625 12.648438 -18.421875 13.640625 -18.140625 C 14.640625 -17.859375 15.34375 -17.578125 15.75 -17.296875 L 16.375 -16.875 L 14.609375 -13.34375 C 14.503906 -13.4375 14.347656 -13.546875 14.140625 -13.671875 C 13.929688 -13.796875 13.515625 -13.957031 12.890625 -14.15625 C 12.273438 -14.363281 11.65625 -14.46875 11.03125 -14.46875 C 10.019531 -14.46875 9.117188 -14.304688 8.328125 -13.984375 C 7.535156 -13.660156 6.90625 -13.234375 6.4375 -12.703125 C 5.976562 -12.171875 5.625 -11.597656 5.375 -10.984375 C 5.132812 -10.378906 5.015625 -9.757812 5.015625 -9.125 C 5.015625 -7.738281 5.53125 -6.492188 6.5625 -5.390625 C 7.601562 -4.296875 9.09375 -3.75 11.03125 -3.75 Z M 11.03125 -3.75 "/></g></g></g><g fill="#211d1d" fill-opacity="1"><g transform="translate(133.939112, 236.911143)"><g><path d="M 1.328125 -18.234375 L 7.84375 -18.234375 C 9.59375 -18.234375 11.019531 -17.765625 12.125 -16.828125 C 13.226562 -15.890625 13.78125 -14.550781 13.78125 -12.8125 C 13.78125 -11.46875 13.445312 -10.34375 12.78125 -9.4375 C 12.113281 -8.539062 11.203125 -7.90625 10.046875 -7.53125 L 16.328125 0 L 11.046875 0 L 5.484375 -7.203125 L 5.484375 0 L 1.328125 0 Z M 5.484375 -10.140625 L 5.96875 -10.140625 C 6.351562 -10.140625 6.675781 -10.144531 6.9375 -10.15625 C 7.195312 -10.175781 7.492188 -10.226562 7.828125 -10.3125 C 8.171875 -10.40625 8.445312 -10.53125 8.65625 -10.6875 C 8.863281 -10.851562 9.039062 -11.085938 9.1875 -11.390625 C 9.332031 -11.703125 9.40625 -12.078125 9.40625 -12.515625 C 9.40625 -12.960938 9.332031 -13.34375 9.1875 -13.65625 C 9.039062 -13.96875 8.863281 -14.203125 8.65625 -14.359375 C 8.445312 -14.523438 8.171875 -14.648438 7.828125 -14.734375 C 7.492188 -14.828125 7.195312 -14.878906 6.9375 -14.890625 C 6.675781 -14.898438 6.351562 -14.90625 5.96875 -14.90625 L 5.484375 -14.90625 Z M 5.484375 -10.140625 "/></g></g></g><g fill="#211d1d" fill-opacity="1"><g transform="translate(152.622223, 236.911143)"><g><path d="M 10.578125 -18.234375 L 17.9375 0 L 13.484375 0 L 12.125 -3.640625 L 5.1875 -3.640625 L 3.84375 0 L -0.625 0 L 6.734375 -18.234375 Z M 10.71875 -7.296875 L 8.6875 -12.59375 L 8.640625 -12.59375 L 6.609375 -7.296875 Z M 10.71875 -7.296875 "/></g></g></g><g fill="#211d1d" fill-opacity="1"><g transform="translate(172.806949, 236.911143)"><g><path d="M 1.328125 -18.234375 L 7.96875 -18.234375 C 9.832031 -18.234375 11.335938 -17.753906 12.484375 -16.796875 C 13.628906 -15.835938 14.203125 -14.441406 14.203125 -12.609375 C 14.203125 -10.785156 13.617188 -9.351562 12.453125 -8.3125 C 11.296875 -7.28125 9.800781 -6.765625 7.96875 -6.765625 L 5.484375 -6.765625 L 5.484375 0 L 1.328125 0 Z M 5.484375 -10.078125 L 6.65625 -10.078125 C 7.582031 -10.078125 8.34375 -10.265625 8.9375 -10.640625 C 9.53125 -11.015625 9.828125 -11.628906 9.828125 -12.484375 C 9.828125 -13.347656 9.53125 -13.96875 8.9375 -14.34375 C 8.34375 -14.71875 7.582031 -14.90625 6.65625 -14.90625 L 5.484375 -14.90625 Z M 5.484375 -10.078125 "/></g></g></g><g fill="#67c656" fill-opacity="1"><g transform="translate(190.394274, 236.911143)"><g><path d="M 5.765625 3.828125 L 4.765625 2.3125 C 4.816406 2.257812 4.878906 2.1875 4.953125 2.09375 C 5.023438 2.007812 5.175781 1.84375 5.40625 1.59375 C 5.644531 1.351562 5.875 1.140625 6.09375 0.953125 C 6.3125 0.773438 6.566406 0.613281 6.859375 0.46875 C 7.160156 0.320312 7.4375 0.25 7.6875 0.25 L 7.6875 0.15625 C 5.539062 -0.257812 3.804688 -1.320312 2.484375 -3.03125 C 1.171875 -4.738281 0.515625 -6.769531 0.515625 -9.125 C 0.515625 -11.78125 1.394531 -14.015625 3.15625 -15.828125 C 4.925781 -17.648438 7.070312 -18.5625 9.59375 -18.5625 C 12.125 -18.5625 14.265625 -17.648438 16.015625 -15.828125 C 17.765625 -14.015625 18.640625 -11.78125 18.640625 -9.125 C 18.640625 -6.957031 18.054688 -5.046875 16.890625 -3.390625 C 15.734375 -1.742188 14.207031 -0.632812 12.3125 -0.0625 L 12.3125 0.015625 C 12.394531 0.015625 12.78125 0.0820312 13.46875 0.21875 C 14.164062 0.363281 14.722656 0.4375 15.140625 0.4375 C 15.691406 0.4375 16.195312 0.335938 16.65625 0.140625 C 17.113281 -0.0546875 17.429688 -0.25 17.609375 -0.4375 L 17.875 -0.75 L 19.171875 2.0625 C 19.148438 2.132812 19.101562 2.222656 19.03125 2.328125 C 18.96875 2.441406 18.816406 2.640625 18.578125 2.921875 C 18.347656 3.203125 18.085938 3.453125 17.796875 3.671875 C 17.503906 3.890625 17.117188 4.085938 16.640625 4.265625 C 16.160156 4.441406 15.648438 4.53125 15.109375 4.53125 C 14.210938 4.53125 13.113281 4.242188 11.8125 3.671875 C 10.519531 3.097656 9.40625 2.8125 8.46875 2.8125 C 7.945312 2.8125 7.460938 2.894531 7.015625 3.0625 C 6.566406 3.226562 6.242188 3.398438 6.046875 3.578125 Z M 5 -9.125 C 5 -8.414062 5.078125 -7.753906 5.234375 -7.140625 C 5.398438 -6.535156 5.65625 -5.984375 6 -5.484375 C 6.34375 -4.984375 6.816406 -4.585938 7.421875 -4.296875 C 8.035156 -4.003906 8.757812 -3.859375 9.59375 -3.859375 C 11.132812 -3.859375 12.28125 -4.359375 13.03125 -5.359375 C 13.78125 -6.367188 14.15625 -7.625 14.15625 -9.125 C 14.15625 -10.613281 13.769531 -11.863281 13 -12.875 C 12.238281 -13.882812 11.101562 -14.390625 9.59375 -14.390625 C 8.082031 -14.390625 6.9375 -13.878906 6.15625 -12.859375 C 5.382812 -11.835938 5 -10.59375 5 -9.125 Z M 5 -9.125 "/></g></g></g><g fill="#67c656" fill-opacity="1"><g transform="translate(212.411856, 236.911143)"><g><path d="M 15.328125 -18.234375 L 15.328125 -6.46875 C 15.328125 -4.226562 14.722656 -2.535156 13.515625 -1.390625 C 12.304688 -0.242188 10.539062 0.328125 8.21875 0.328125 C 5.894531 0.328125 4.128906 -0.242188 2.921875 -1.390625 C 1.710938 -2.535156 1.109375 -4.226562 1.109375 -6.46875 L 1.109375 -18.234375 L 5.265625 -18.234375 L 5.265625 -7.6875 C 5.265625 -6.21875 5.492188 -5.191406 5.953125 -4.609375 C 6.421875 -4.035156 7.175781 -3.75 8.21875 -3.75 C 9.257812 -3.75 10.007812 -4.035156 10.46875 -4.609375 C 10.9375 -5.191406 11.171875 -6.21875 11.171875 -7.6875 L 11.171875 -18.234375 Z M 15.328125 -18.234375 "/></g></g></g><g fill="#67c656" fill-opacity="1"><g transform="translate(231.713277, 236.911143)"><g><path d="M 11.75 -18.234375 L 11.75 -14.578125 L 5.484375 -14.578125 L 5.484375 -10.953125 L 11.484375 -10.953125 L 11.484375 -7.3125 L 5.484375 -7.3125 L 5.484375 -3.640625 L 11.75 -3.640625 L 11.75 0 L 1.328125 0 L 1.328125 -18.234375 Z M 11.75 -18.234375 "/></g></g></g><g fill="#67c656" fill-opacity="1"><g transform="translate(247.393149, 236.911143)"><g><path d="M 8.046875 -18.5625 C 9.023438 -18.5625 9.984375 -18.414062 10.921875 -18.125 C 11.867188 -17.84375 12.570312 -17.5625 13.03125 -17.28125 L 13.703125 -16.828125 L 12.015625 -13.515625 C 11.878906 -13.609375 11.691406 -13.722656 11.453125 -13.859375 C 11.222656 -14.003906 10.785156 -14.191406 10.140625 -14.421875 C 9.492188 -14.660156 8.890625 -14.78125 8.328125 -14.78125 C 7.640625 -14.78125 7.109375 -14.628906 6.734375 -14.328125 C 6.359375 -14.035156 6.171875 -13.640625 6.171875 -13.140625 C 6.171875 -12.890625 6.253906 -12.65625 6.421875 -12.4375 C 6.597656 -12.226562 6.898438 -12.003906 7.328125 -11.765625 C 7.753906 -11.523438 8.128906 -11.328125 8.453125 -11.171875 C 8.785156 -11.023438 9.289062 -10.804688 9.96875 -10.515625 C 11.144531 -10.015625 12.148438 -9.332031 12.984375 -8.46875 C 13.816406 -7.613281 14.234375 -6.640625 14.234375 -5.546875 C 14.234375 -4.503906 14.046875 -3.59375 13.671875 -2.8125 C 13.296875 -2.03125 12.78125 -1.414062 12.125 -0.96875 C 11.46875 -0.53125 10.738281 -0.207031 9.9375 0 C 9.144531 0.21875 8.285156 0.328125 7.359375 0.328125 C 6.566406 0.328125 5.785156 0.242188 5.015625 0.078125 C 4.242188 -0.078125 3.597656 -0.273438 3.078125 -0.515625 C 2.566406 -0.765625 2.101562 -1.003906 1.6875 -1.234375 C 1.28125 -1.472656 0.984375 -1.671875 0.796875 -1.828125 L 0.515625 -2.078125 L 2.578125 -5.5625 C 2.753906 -5.414062 3 -5.226562 3.3125 -5 C 3.625 -4.769531 4.171875 -4.460938 4.953125 -4.078125 C 5.742188 -3.703125 6.441406 -3.515625 7.046875 -3.515625 C 8.796875 -3.515625 9.671875 -4.109375 9.671875 -5.296875 C 9.671875 -5.546875 9.609375 -5.773438 9.484375 -5.984375 C 9.359375 -6.203125 9.132812 -6.414062 8.8125 -6.625 C 8.5 -6.84375 8.222656 -7.015625 7.984375 -7.140625 C 7.742188 -7.265625 7.347656 -7.457031 6.796875 -7.71875 C 6.242188 -7.976562 5.832031 -8.175781 5.5625 -8.3125 C 4.457031 -8.851562 3.601562 -9.53125 3 -10.34375 C 2.394531 -11.164062 2.09375 -12.046875 2.09375 -12.984375 C 2.09375 -14.617188 2.695312 -15.957031 3.90625 -17 C 5.113281 -18.039062 6.492188 -18.5625 8.046875 -18.5625 Z M 8.046875 -18.5625 "/></g></g></g><g fill="#67c656" fill-opacity="1"><g transform="translate(265.104627, 236.911143)"><g><path d="M 0.171875 -14.578125 L 0.171875 -18.234375 L 12.984375 -18.234375 L 12.984375 -14.578125 L 8.65625 -14.578125 L 8.65625 0 L 4.5 0 L 4.5 -14.578125 Z M 0.171875 -14.578125 "/></g></g></g></svg>